<?xml version="1.0" standalone="no"?>
<!DOCTYPE svg PUBLIC "-//W3C//DTD SVG 20010904//EN"
 "http://www.w3.org/TR/2001/REC-SVG-20010904/DTD/svg10.dtd">
<svg version="1.0" xmlns="http://www.w3.org/2000/svg"
 width="200.000000pt" height="200.000000pt" viewBox="0 0 200.000000 200.000000"
 preserveAspectRatio="xMidYMid meet">
<metadata>
Created by potrace 1.15, written by Peter Selinger 2001-2017
</metadata>
<g transform="translate(0.000000,200.000000) scale(0.100000,-0.100000)"
fill="#000000" stroke="none">
<path d="M862 1750 c-102 -27 -166 -64 -244 -141 -75 -74 -129 -170 -149 -268
-18 -87 -6 -249 25 -356 65 -219 229 -487 429 -700 68 -73 76 -79 92 -65 34
28 212 258 280 360 153 232 234 434 242 605 9 180 -38 310 -155 424 -80 79
-143 115 -248 141 -96 25 -177 25 -272 0z m239 -303 c85 -45 134 -154 109
-246 -14 -52 -72 -118 -125 -142 -158 -72 -341 81 -296 247 37 137 189 205
312 141z"/>
</g>
</svg>
